# Blender v2.80 (sub 75) OBJ File: 'arms.blend'
# www.blender.org
mtllib arms.mtl
o Object_Cube
v -2.100000 6.300001 -1.050000
v -2.100000 12.599998 -1.050000
v -4.200000 10.428745 -0.973544
v -4.200000 12.523544 -1.121253
v -2.099999 12.523544 -1.121252
v -2.100000 10.428745 -0.973543
v -4.200000 10.871872 5.310853
v -4.200000 12.966671 5.163144
v -2.099999 12.966671 5.163144
v -2.100000 10.871872 5.310853
v 2.099999 14.887516 4.221554
v 2.100000 16.252485 2.625667
v 4.200000 16.252485 2.625667
v 4.200000 14.887516 4.221554
v 2.099999 10.099855 0.126644
v 2.100000 11.464825 -1.469243
v 4.199999 11.464825 -1.469243
v 4.199999 10.099855 0.126644
v 2.100000 12.599998 -1.050000
v 2.100000 12.599998 1.049999
v 2.100000 6.300001 1.049999
v 2.100000 6.300001 -1.050000
v -2.100000 12.599998 1.049999
v -2.100000 6.300001 1.049999
v -4.200000 10.428745 -0.973544
v -4.200000 10.428745 -0.973544
v -4.200000 10.871872 5.310853
v -4.200000 10.871872 5.310853
v -2.099999 12.523544 -1.121252
v -2.099999 12.523544 -1.121252
v -2.099999 12.966671 5.163144
v -2.099999 12.966671 5.163144
v -4.200000 12.523544 -1.121253
v -4.200000 12.523544 -1.121253
v -4.200000 12.966671 5.163144
v -4.200000 12.966671 5.163144
v -2.100000 10.428745 -0.973543
v -2.100000 10.428745 -0.973543
v -2.100000 10.871872 5.310853
v -2.100000 10.871872 5.310853
v 2.099999 10.099855 0.126644
v 2.099999 10.099855 0.126644
v 2.100000 11.464825 -1.469243
v 2.100000 11.464825 -1.469243
v 2.100000 16.252485 2.625667
v 2.100000 16.252485 2.625667
v 2.099999 14.887516 4.221554
v 2.099999 14.887516 4.221554
v 4.199999 11.464825 -1.469243
v 4.199999 11.464825 -1.469243
v 4.200000 16.252485 2.625667
v 4.200000 16.252485 2.625667
v 4.199999 10.099855 0.126644
v 4.199999 10.099855 0.126644
v 4.200000 14.887516 4.221554
v 4.200000 14.887516 4.221554
vt 0.500000 0.375000
vt 0.437500 0.375000
vt 0.437500 0.000000
vt 0.500000 0.000000
vt 0.812500 0.375000
vt 0.875000 0.375000
vt 0.875000 0.000000
vt 0.812500 0.000000
vt 0.750000 0.375000
vt 0.812500 0.375000
vt 0.812500 0.000000
vt 0.750000 0.000000
vt 0.750000 0.375000
vt 0.812500 0.375000
vt 0.812500 0.500000
vt 0.750000 0.500000
vt 0.687500 0.375000
vt 0.750000 0.375000
vt 0.750000 0.500000
vt 0.687500 0.500000
vt 0.250000 0.375000
vt 0.250000 0.000000
vt 0.312500 0.000000
vt 0.312500 0.375000
vt 0.687500 0.375000
vt 0.750000 0.375000
vt 0.750000 0.000000
vt 0.687500 0.000000
vt 0.625000 0.375000
vt 0.687500 0.375000
vt 0.687500 0.000000
vt 0.625000 0.000000
vt 0.625000 0.375000
vt 0.625000 0.000000
vt 0.687500 0.000000
vt 0.687500 0.375000
vt 0.687500 0.375000
vt 0.687500 0.500000
vt 0.750000 0.500000
vt 0.750000 0.375000
vt 0.687500 0.375000
vt 0.687500 0.000000
vt 0.750000 0.000000
vt 0.750000 0.375000
vt 0.750000 0.375000
vt 0.750000 0.000000
vt 0.812500 0.000000
vt 0.812500 0.375000
vt 0.750000 0.375000
vt 0.750000 0.500000
vt 0.812500 0.500000
vt 0.812500 0.375000
vt 0.812500 0.375000
vt 0.812500 0.000000
vt 0.875000 0.000000
vt 0.875000 0.375000
vn -1.0000 0.0000 0.0000
vn 0.0000 0.9975 -0.0703
vn 1.0000 -0.0000 0.0000
vn 0.0000 0.7599 0.6500
vn -0.0000 -0.7599 -0.6500
vn 0.0000 -0.9975 0.0703
vn 0.0000 -0.0703 -0.9975
vn 0.0000 -0.6500 0.7599
vn 0.0000 0.0703 0.9975
vn -0.0000 0.6500 -0.7599
usemtl Character
s off
f 23/1/1 2/2/1 1/3/1 24/4/1
f 5/5/2 4/6/2 8/7/2 9/8/2
f 6/9/3 29/10/3 31/11/3 10/12/3
f 11/13/4 14/14/4 13/15/4 12/16/4
f 18/17/5 15/18/5 16/19/5 17/20/5
f 20/21/3 21/22/3 22/23/3 19/24/3
f 3/25/6 37/26/6 39/27/6 7/28/6
f 33/29/1 25/30/1 27/31/1 35/32/1
f 49/33/3 51/34/3 55/35/3 53/36/3
f 26/37/7 34/38/7 30/39/7 38/40/7
f 54/41/8 56/42/8 47/43/8 41/44/8
f 42/45/1 48/46/1 45/47/1 43/48/1
f 40/49/9 32/50/9 36/51/9 28/52/9
f 44/53/10 46/54/10 52/55/10 50/56/10
